<?xml version="1.0" standalone="no"?>
<!DOCTYPE svg PUBLIC "-//W3C//DTD SVG 20010904//EN"
 "http://www.w3.org/TR/2001/REC-SVG-20010904/DTD/svg10.dtd">
<svg version="1.0" xmlns="http://www.w3.org/2000/svg"
 width="508.000000pt" height="645.000000pt" viewBox="0 0 508.000000 645.000000"
 preserveAspectRatio="xMidYMid meet">
<metadata>
Created by potrace 1.16, written by Peter Selinger 2001-2019
</metadata>
<g transform="translate(0.000000,645.000000) scale(0.100000,-0.100000)"
fill="#000000" stroke="none">
<path d="M3435 5910 l-130 -130 -777 0 -778 0 0 -400 0 -400 315 0 315 0 0
-150 0 -150 -82 0 -83 0 160 -160 c88 -88 164 -160 170 -160 6 0 82 72 170
160 l160 160 -83 0 -82 0 0 150 0 150 293 0 292 0 138 138 137 137 -2 393 -3
392 -130 -130z m-1311 -408 c10 -17 -11 -30 -44 -29 -31 2 -35 -1 -35 -22 0
-17 10 -30 35 -43 43 -24 60 -45 60 -75 0 -38 -34 -63 -84 -63 -47 0 -60 8
-50 34 4 11 11 13 31 5 28 -10 63 4 63 26 0 8 -19 27 -42 41 -50 32 -58 41
-58 73 0 39 27 61 76 61 24 0 45 -4 48 -8z m566 -12 c0 -13 -7 -20 -20 -20
-13 0 -20 7 -20 20 0 13 7 20 20 20 13 0 20 -7 20 -20z m-391 -64 c14 -15 21
-33 19 -48 -3 -21 -9 -23 -66 -28 l-63 -5 17 -24 c14 -20 22 -22 55 -17 30 5
39 3 39 -8 0 -17 -22 -26 -63 -26 -80 1 -113 95 -55 157 30 32 87 31 117 -1z
m216 -27 c19 -56 23 -56 46 4 16 42 17 42 73 45 l56 3 0 -91 c0 -83 -1 -90
-20 -90 -18 0 -20 7 -20 73 0 58 -3 74 -18 83 -16 10 -21 2 -51 -73 -19 -46
-39 -82 -45 -80 -6 2 -27 41 -46 87 -18 45 -36 78 -38 71 -2 -6 -11 -11 -21
-11 -30 0 -41 -22 -41 -87 0 -56 -2 -63 -20 -63 -19 0 -20 7 -20 89 l0 89 74
1 74 1 17 -51z m343 28 c3 -16 -1 -17 -31 -12 -41 8 -67 -13 -67 -55 0 -41 26
-63 66 -56 20 4 35 2 40 -5 10 -16 -15 -29 -59 -29 -53 0 -87 35 -87 90 0 59
35 92 93 88 31 -2 43 -8 45 -21z m172 -4 c11 -15 20 -36 18 -47 -3 -18 -11
-21 -65 -24 -66 -3 -74 -10 -46 -37 11 -12 26 -15 50 -12 35 6 55 -9 32 -24
-8 -5 -31 -9 -52 -9 -72 0 -109 69 -72 140 17 33 27 38 77 39 28 1 41 -5 58
-26z"/>
<path d="M2212 5408 c-21 -21 -13 -28 28 -28 22 0 40 4 40 8 0 14 -23 32 -40
32 -9 0 -21 -5 -28 -12z"/>
<path d="M2934 5403 c-17 -17 -16 -18 25 -21 50 -4 59 1 41 23 -17 20 -44 19
-66 -2z"/>
<path d="M4470 4345 l-336 -335 -1727 0 -1727 0 0 -1005 0 -1005 865 0 865 0
0 -140 0 -140 -76 0 -76 0 152 -160 c84 -88 158 -160 165 -160 7 0 81 72 165
160 l152 160 -76 0 -76 0 0 140 0 140 698 0 697 0 338 338 337 337 -2 1002 -3
1003 -335 -335z m-2882 -1221 c28 -19 29 -70 3 -98 -20 -21 -20 -21 10 -69 35
-56 35 -57 9 -57 -13 0 -31 17 -51 50 -17 28 -37 50 -45 50 -10 0 -14 -14 -14
-50 0 -43 -3 -50 -20 -50 -19 0 -20 7 -20 120 l0 120 53 0 c31 0 61 -6 75 -16z
m373 6 c64 -35 64 -185 0 -220 -36 -19 -96 -12 -120 14 -70 75 -30 216 61 216
22 0 48 -5 59 -10z m607 -13 c3 -16 -1 -17 -30 -12 -24 5 -38 2 -46 -8 -15
-18 -6 -44 18 -52 10 -3 30 -15 44 -26 34 -27 36 -81 4 -103 -23 -17 -84 -21
-105 -8 -21 13 2 35 30 28 36 -9 57 2 57 30 0 17 -10 29 -40 44 -61 31 -76 74
-39 111 27 27 102 24 107 -4z m-298 -12 c0 -20 5 -25 25 -25 16 0 25 -6 25
-15 0 -9 -9 -15 -25 -15 -23 0 -25 -4 -25 -44 0 -60 8 -76 36 -76 15 0 24 -6
24 -15 0 -21 -58 -20 -82 2 -13 12 -18 31 -18 75 0 32 -4 58 -10 58 -5 0 -10
7 -10 15 0 8 5 15 10 15 6 0 10 9 10 19 0 17 11 28 33 30 4 1 7 -10 7 -24z
m-501 -49 c14 -15 21 -33 19 -48 -3 -21 -9 -23 -66 -28 l-63 -5 17 -24 c14
-20 22 -22 55 -17 30 5 39 3 39 -8 0 -17 -22 -26 -63 -26 -80 1 -113 95 -55
157 30 32 87 31 117 -1z m391 14 c29 -15 44 -73 30 -115 -13 -40 -35 -55 -79
-55 -29 0 -31 -3 -31 -35 0 -28 -4 -35 -20 -35 -19 0 -20 7 -20 125 l0 125 51
0 c28 0 59 -4 69 -10z m571 -1 c23 -12 41 -52 33 -74 -5 -11 -22 -15 -65 -15
-61 0 -70 -7 -42 -35 11 -12 25 -15 49 -11 20 4 35 2 40 -5 10 -16 -15 -29
-59 -29 -53 0 -87 35 -87 90 0 71 69 113 131 79z m226 -39 c10 -28 20 -50 23
-50 3 0 13 23 23 50 14 38 23 50 38 50 14 0 19 -5 16 -14 -36 -94 -71 -166
-79 -164 -5 2 -24 37 -41 78 -29 67 -35 75 -57 72 -37 -5 -50 -29 -50 -94 0
-51 -2 -58 -20 -58 -18 0 -20 7 -20 88 l0 89 75 1 74 2 18 -50z m244 39 c23
-12 41 -52 33 -74 -5 -11 -22 -15 -65 -15 -61 0 -70 -7 -42 -35 11 -12 25 -15
49 -11 20 4 35 2 40 -5 10 -16 -15 -29 -59 -29 -53 0 -87 35 -87 90 0 71 69
113 131 79z m169 -5 c0 -8 -10 -14 -25 -14 -32 0 -45 -26 -45 -94 0 -49 -2
-56 -20 -56 -18 0 -20 7 -20 89 l0 88 55 1 c41 0 55 -3 55 -14z"/>
<path d="M1500 3070 c0 -43 13 -50 51 -30 38 21 13 70 -35 70 -12 0 -16 -10
-16 -40z"/>
<path d="M1870 3090 c-36 -36 -21 -142 22 -156 68 -21 107 118 45 161 -29 20
-43 19 -67 -5z"/>
<path d="M1682 3038 c-21 -21 -13 -28 28 -28 22 0 40 4 40 8 0 14 -23 32 -40
32 -9 0 -21 -5 -28 -12z"/>
<path d="M2087 3043 c-4 -3 -7 -30 -7 -60 0 -49 2 -53 23 -53 33 0 47 18 47
60 0 20 -5 41 -12 48 -13 13 -41 16 -51 5z"/>
<path d="M2652 3038 c-21 -21 -13 -28 33 -28 43 0 45 1 35 20 -12 22 -49 27
-68 8z"/>
<path d="M3122 3038 c-21 -21 -13 -28 33 -28 43 0 45 1 35 20 -12 22 -49 27
-68 8z"/>
<path d="M3435 1420 l-130 -130 -777 0 -778 0 0 -400 0 -400 773 0 772 0 138
138 137 137 -2 393 -3 392 -130 -130z m-1311 -408 c10 -17 -11 -30 -44 -29
-31 2 -35 -1 -35 -22 0 -17 10 -30 35 -43 43 -24 60 -45 60 -75 0 -38 -34 -63
-84 -63 -47 0 -60 8 -50 34 4 11 11 13 31 5 28 -10 63 4 63 26 0 8 -19 27 -42
41 -50 32 -58 41 -58 73 0 39 27 61 76 61 24 0 45 -4 48 -8z m566 -12 c0 -13
-7 -20 -20 -20 -13 0 -20 7 -20 20 0 13 7 20 20 20 13 0 20 -7 20 -20z m-391
-64 c14 -15 21 -33 19 -48 -3 -21 -9 -23 -66 -28 l-63 -5 17 -24 c14 -20 22
-22 55 -17 30 5 39 3 39 -8 0 -17 -22 -26 -63 -26 -80 1 -113 95 -55 157 30
32 87 31 117 -1z m216 -27 c19 -56 23 -56 46 4 16 42 17 42 73 45 l56 3 0 -91
c0 -83 -1 -90 -20 -90 -18 0 -20 7 -20 73 0 58 -3 74 -18 83 -16 10 -21 2 -51
-73 -19 -46 -39 -82 -45 -80 -6 2 -27 41 -46 87 -18 45 -36 78 -38 71 -2 -6
-11 -11 -21 -11 -30 0 -41 -22 -41 -87 0 -56 -2 -63 -20 -63 -19 0 -20 7 -20
89 l0 89 74 1 74 1 17 -51z m343 28 c3 -16 -1 -17 -31 -12 -41 8 -67 -13 -67
-55 0 -41 26 -63 66 -56 20 4 35 2 40 -5 10 -16 -15 -29 -59 -29 -53 0 -87 35
-87 90 0 59 35 92 93 88 31 -2 43 -8 45 -21z m172 -4 c11 -15 20 -36 18 -47
-3 -18 -11 -21 -65 -24 -66 -3 -74 -10 -46 -37 11 -12 26 -15 50 -12 35 6 55
-9 32 -24 -8 -5 -31 -9 -52 -9 -72 0 -109 69 -72 140 17 33 27 38 77 39 28 1
41 -5 58 -26z"/>
<path d="M2212 918 c-21 -21 -13 -28 28 -28 22 0 40 4 40 8 0 14 -23 32 -40
32 -9 0 -21 -5 -28 -12z"/>
<path d="M2934 913 c-17 -17 -16 -18 25 -21 50 -4 59 1 41 23 -17 20 -44 19
-66 -2z"/>
</g>
</svg>
